{
  "accessors": [
    {
      "bufferView": 2,
      "componentType": 5126,
      "count": 48,
      "max": [0.5572770237922668, 0.23151199519634247, 0.1525139957666397],
      "min": [0.5274630188941956, 0.20169900357723236, 0.12669500708580017],
      "type": "VEC3"
    },
    {
      "bufferView": 2,
      "byteOffset": 576,
      "componentType": 5126,
      "count": 48,
      "max": [1.0, 1.0, 0.866028904914856],
      "min": [-1.0, -1.0, -0.8660306930541992],
      "type": "VEC3"
    },
    {
      "bufferView": 3,
      "componentType": 5126,
      "count": 48,
      "max": [0.9228140711784363, 0.9774830937385559, 0.640097975730896, 1.0],
      "min": [-0.9512410163879395, -0.9584506750106812, -0.8466011881828308, 1.0],
      "type": "VEC4"
    },
    {
      "bufferView": 1,
      "componentType": 5126,
      "count": 48,
      "max": [0.5345669984817505, 0.7968909740447998],
      "min": [0.5227090120315552, 0.7909349799156189],
      "type": "VEC2"
    },
    {
      "bufferView": 0,
      "componentType": 5125,
      "count": 180,
      "type": "SCALAR"
    },
    {
      "bufferView": 2,
      "byteOffset": 1152,
      "componentType": 5126,
      "count": 78,
      "max": [0.5581700205802917, 0.23899400234222412, 0.20693300664424896],
      "min": [0.46632999181747437, 0.12851400673389435, 0.09659329801797867],
      "type": "VEC3"
    },
    {
      "bufferView": 2,
      "byteOffset": 2088,
      "componentType": 5126,
      "count": 78,
      "max": [0.9692041277885437, 0.9756156206130981, 0.9743698835372925],
      "min": [-0.9692047834396362, -0.9756159782409668, -0.974369466304779],
      "type": "VEC3"
    },
    {
      "bufferView": 3,
      "byteOffset": 768,
      "componentType": 5126,
      "count": 78,
      "max": [0.9855707883834839, 0.9977449774742126, 0.6330030560493469, 1.0],
      "min": [-0.972861647605896, -0.9936902523040771, -0.5973978042602539, 1.0],
      "type": "VEC4"
    },
    {
      "bufferView": 1,
      "byteOffset": 384,
      "componentType": 5126,
      "count": 78,
      "max": [0.6398620009422302, 0.7419430017471313],
      "min": [0.5743560194969177, 0.6442000269889832],
      "type": "VEC2"
    },
    {
      "bufferView": 0,
      "byteOffset": 720,
      "componentType": 5125,
      "count": 336,
      "type": "SCALAR"
    },
    {
      "bufferView": 2,
      "byteOffset": 3024,
      "componentType": 5126,
      "count": 45,
      "max": [0.676006019115448, 0.12295600026845932, 0.051758598536252975],
      "min": [0.50729900598526, -0.003067699959501624, -0.07426519691944122],
      "type": "VEC3"
    },
    {
      "bufferView": 2,
      "byteOffset": 3564,
      "componentType": 5126,
      "count": 45,
      "max": [1.0, 0.9972517490386963, 0.9972513318061829],
      "min": [0.06847600638866425, -0.9972516298294067, -0.9972517490386963],
      "type": "VEC3"
    },
    {
      "bufferView": 3,
      "byteOffset": 2016,
      "componentType": 5126,
      "count": 45,
      "max": [0.0, 0.9914624094963074, 0.5872702598571777, 1.0],
      "min": [-0.9906694889068604, -0.9963846206665039, -0.5675517916679382, 1.0],
      "type": "VEC4"
    },
    {
      "bufferView": 1,
      "byteOffset": 1008,
      "componentType": 5126,
      "count": 45,
      "max": [0.5750889778137207, 0.7500090003013611],
      "min": [0.5252320170402527, 0.6442000269889832],
      "type": "VEC2"
    },
    {
      "bufferView": 0,
      "byteOffset": 2064,
      "componentType": 5125,
      "count": 168,
      "type": "SCALAR"
    },
    {
      "bufferView": 2,
      "byteOffset": 4104,
      "componentType": 5126,
      "count": 170,
      "max": [0.602940022945404, 0.6724650263786316, 0.5929809808731079],
      "min": [-0.6169220209121704, -0.9434469938278198, -0.6268799901008606],
      "type": "VEC3"
    },
    {
      "bufferView": 2,
      "byteOffset": 6144,
      "componentType": 5126,
      "count": 170,
      "max": [0.9720728993415833, 1.0, 0.9720728993415833],
      "min": [-0.9720728993415833, -1.0, -0.9720731377601624],
      "type": "VEC3"
    },
    {
      "bufferView": 3,
      "byteOffset": 2736,
      "componentType": 5126,
      "count": 170,
      "max": [0.9881980419158936, 0.6616333723068237, 0.9881425499916077, 1.0],
      "min": [-0.9929858446121216, -0.6616343855857849, -0.9763748645782471, 1.0],
      "type": "VEC4"
    },
    {
      "bufferView": 1,
      "byteOffset": 1368,
      "componentType": 5126,
      "count": 170,
      "max": [0.7035189867019653, 0.8735160231590271],
      "min": [0.02143399976193905, 0.3495570123195648],
      "type": "VEC2"
    },
    {
      "bufferView": 0,
      "byteOffset": 2736,
      "componentType": 5125,
      "count": 792,
      "type": "SCALAR"
    },
    {
      "bufferView": 2,
      "byteOffset": 8184,
      "componentType": 5126,
      "count": 48,
      "max": [0.5572770237922668, 0.23151199519634247, -0.16720500588417053],
      "min": [0.5274630188941956, 0.20169900357723236, -0.19302399456501007],
      "type": "VEC3"
    },
    {
      "bufferView": 2,
      "byteOffset": 8760,
      "componentType": 5126,
      "count": 48,
      "max": [1.0, 1.0, 0.8660306930541992],
      "min": [-1.0, -1.0, -0.866028904914856],
      "type": "VEC3"
    },
    {
      "bufferView": 3,
      "byteOffset": 5456,
      "componentType": 5126,
      "count": 48,
      "max": [0.9230273365974426, 0.9775745272636414, 0.6400850415229797, 1.0],
      "min": [-0.9514103531837463, -0.9582799673080444, -0.8466656804084778, 1.0],
      "type": "VEC4"
    },
    {
      "bufferView": 1,
      "byteOffset": 2728,
      "componentType": 5126,
      "count": 48,
      "max": [0.58365797996521, 0.796891987323761],
      "min": [0.5166659951210022, 0.7909349799156189],
      "type": "VEC2"
    },
    {
      "bufferView": 0,
      "byteOffset": 5904,
      "componentType": 5125,
      "count": 180,
      "type": "SCALAR"
    },
    {
      "bufferView": 2,
      "byteOffset": 9336,
      "componentType": 5126,
      "count": 78,
      "max": [0.55942702293396, 0.23905199766159058, -0.10608900338411331],
      "min": [0.46507298946380615, 0.1284559965133667, -0.21821199357509613],
      "type": "VEC3"
    },
    {
      "bufferView": 2,
      "byteOffset": 10272,
      "componentType": 5126,
      "count": 78,
      "max": [0.993687629699707, 0.9749207496643066, 0.9901285171508789],
      "min": [-0.993687629699707, -0.9749191403388977, -0.9901278614997864],
      "type": "VEC3"
    },
    {
      "bufferView": 3,
      "byteOffset": 6224,
      "componentType": 5126,
      "count": 78,
      "max": [0.9904515147209167, 0.9946747422218323, 0.49251627922058105, 1.0],
      "min": [-0.9867491126060486, -0.9856336712837219, -0.5969951748847961, 1.0],
      "type": "VEC4"
    },
    {
      "bufferView": 1,
      "byteOffset": 3112,
      "componentType": 5126,
      "count": 78,
      "max": [0.6617649793624878, 0.7419450283050537],
      "min": [0.47613900899887085, 0.7206249833106995],
      "type": "VEC2"
    },
    {
      "bufferView": 0,
      "byteOffset": 6624,
      "componentType": 5125,
      "count": 336,
      "type": "SCALAR"
    },
    {
      "bufferView": 2,
      "byteOffset": 11208,
      "componentType": 5126,
      "count": 5014,
      "max": [0.7334280014038086, 1.0, 0.7334280014038086],
      "min": [-0.7334280014038086, -1.0, -0.7334280014038086],
      "type": "VEC3"
    },
    {
      "bufferView": 2,
      "byteOffset": 71376,
      "componentType": 5126,
      "count": 5014,
      "max": [0.9988795518875122, 1.0, 0.9988795518875122],
      "min": [-0.998879611492157, -1.0, -0.9988795518875122],
      "type": "VEC3"
    },
    {
      "bufferView": 3,
      "byteOffset": 7472,
      "componentType": 5126,
      "count": 5014,
      "max": [0.9918351769447327, 0.9987097978591919, 0.9774662256240845, 1.0],
      "min": [-0.9973887205123901, -0.999833881855011, -0.9794483184814453, 1.0],
      "type": "VEC4"
    },
    {
      "bufferView": 1,
      "byteOffset": 3736,
      "componentType": 5126,
      "count": 5014,
      "max": [0.9944090247154236, 0.9556159973144531],
      "min": [0.004658999852836132, 0.027281999588012695],
      "type": "VEC2"
    },
    {
      "bufferView": 0,
      "byteOffset": 7968,
      "componentType": 5125,
      "count": 27168,
      "type": "SCALAR"
    }
  ],
  "asset": {
    "extras": {
      "author": "Tatiana_Lytvyn (https://sketchfab.com/Tatiana_Lytvyn)",
      "license": "CC-BY-4.0 (http://creativecommons.org/licenses/by/4.0/)",
      "source": "https://sketchfab.com/3d-models/chicken-in-egg-07b624f79fd447bcaa8fa99cde0dc79c",
      "title": "Chicken in Egg"
    },
    "generator": "Sketchfab-12.66.0",
    "version": "2.0"
  },
  "bufferViews": [
    {
      "buffer": 0,
      "byteLength": 116640,
      "name": "floatBufferViews",
      "target": 34963
    },
    {
      "buffer": 0,
      "byteLength": 43848,
      "byteOffset": 116640,
      "byteStride": 8,
      "name": "floatBufferViews",
      "target": 34962
    },
    {
      "buffer": 0,
      "byteLength": 131544,
      "byteOffset": 160488,
      "byteStride": 12,
      "name": "floatBufferViews",
      "target": 34962
    },
    {
      "buffer": 0,
      "byteLength": 87696,
      "byteOffset": 292032,
      "byteStride": 16,
      "name": "floatBufferViews",
      "target": 34962
    }
  ],
  "buffers": [
    {
      "byteLength": 379728,
      "uri": "https://raw.githubusercontent.com/ahyoung21/portfolio/master/public/images/scene.bin"
    }
  ],
  "images": [
    {
      "uri": "https://raw.githubusercontent.com/ahyoung21/portfolio/master/public/images/textures/1001_baseColor.jpeg"
    },
    {
      "uri": "https://raw.githubusercontent.com/ahyoung21/portfolio/master/public/images/textures/1001_metallicRoughness.png"
    },
    {
      "uri": "https://raw.githubusercontent.com/ahyoung21/portfolio/master/public/images/textures/1001_normal.png"
    }
  ],
  "materials": [
    {
      "doubleSided": true,
      "name": "1001",
      "normalTexture": {
        "index": 2
      },
      "occlusionTexture": {
        "index": 1
      },
      "pbrMetallicRoughness": {
        "baseColorTexture": {
          "index": 0
        },
        "metallicRoughnessTexture": {
          "index": 1
        }
      }
    }
  ],
  "meshes": [
    {
      "name": "defaultMaterial",
      "primitives": [
        {
          "attributes": {
            "NORMAL": 1,
            "POSITION": 0,
            "TANGENT": 2,
            "TEXCOORD_0": 3
          },
          "indices": 4,
          "material": 0,
          "mode": 4
        }
      ]
    },
    {
      "name": "defaultMaterial",
      "primitives": [
        {
          "attributes": {
            "NORMAL": 6,
            "POSITION": 5,
            "TANGENT": 7,
            "TEXCOORD_0": 8
          },
          "indices": 9,
          "material": 0,
          "mode": 4
        }
      ]
    },
    {
      "name": "defaultMaterial",
      "primitives": [
        {
          "attributes": {
            "NORMAL": 11,
            "POSITION": 10,
            "TANGENT": 12,
            "TEXCOORD_0": 13
          },
          "indices": 14,
          "material": 0,
          "mode": 4
        }
      ]
    },
    {
      "name": "defaultMaterial",
      "primitives": [
        {
          "attributes": {
            "NORMAL": 16,
            "POSITION": 15,
            "TANGENT": 17,
            "TEXCOORD_0": 18
          },
          "indices": 19,
          "material": 0,
          "mode": 4
        }
      ]
    },
    {
      "name": "defaultMaterial",
      "primitives": [
        {
          "attributes": {
            "NORMAL": 21,
            "POSITION": 20,
            "TANGENT": 22,
            "TEXCOORD_0": 23
          },
          "indices": 24,
          "material": 0,
          "mode": 4
        }
      ]
    },
    {
      "name": "defaultMaterial",
      "primitives": [
        {
          "attributes": {
            "NORMAL": 26,
            "POSITION": 25,
            "TANGENT": 27,
            "TEXCOORD_0": 28
          },
          "indices": 29,
          "material": 0,
          "mode": 4
        }
      ]
    },
    {
      "name": "defaultMaterial",
      "primitives": [
        {
          "attributes": {
            "NORMAL": 31,
            "POSITION": 30,
            "TANGENT": 32,
            "TEXCOORD_0": 33
          },
          "indices": 34,
          "material": 0,
          "mode": 4
        }
      ]
    }
  ],
  "nodes": [
    {
      "children": [1],
      "matrix": [
        1.0, 0.0, 0.0, 0.0, 0.0, 2.220446049250313e-16, -1.0, 0.0, 0.0, 1.0, 2.220446049250313e-16,
        0.0, 0.0, 0.0, 0.0, 1.0
      ],
      "name": "Sketchfab_model"
    },
    {
      "children": [2, 4, 6, 8, 10, 12, 14],
      "matrix": [
        1.0, 0.0, 0.0, 0.0, 0.0, -4.371139006309477e-8, 0.999999999999999, 0.0, 0.0,
        -0.999999999999999, -4.371139006309477e-8, 0.0, 0.0, 0.0, 0.0, 1.0
      ],
      "name": "Collada visual scene group"
    },
    {
      "children": [3],
      "name": "g"
    },
    {
      "mesh": 0,
      "name": "defaultMaterial"
    },
    {
      "children": [5],
      "name": "g"
    },
    {
      "mesh": 1,
      "name": "defaultMaterial"
    },
    {
      "children": [7],
      "name": "g"
    },
    {
      "mesh": 2,
      "name": "defaultMaterial"
    },
    {
      "children": [9],
      "name": "g"
    },
    {
      "mesh": 3,
      "name": "defaultMaterial"
    },
    {
      "children": [11],
      "name": "g"
    },
    {
      "mesh": 4,
      "name": "defaultMaterial"
    },
    {
      "children": [13],
      "name": "g"
    },
    {
      "mesh": 5,
      "name": "defaultMaterial"
    },
    {
      "children": [15],
      "name": "g"
    },
    {
      "mesh": 6,
      "name": "defaultMaterial"
    }
  ],
  "samplers": [
    {
      "magFilter": 9729,
      "minFilter": 9987,
      "wrapS": 10497,
      "wrapT": 10497
    }
  ],
  "scene": 0,
  "scenes": [
    {
      "name": "Sketchfab_Scene",
      "nodes": [0]
    }
  ],
  "textures": [
    {
      "sampler": 0,
      "source": 0
    },
    {
      "sampler": 0,
      "source": 1
    },
    {
      "sampler": 0,
      "source": 2
    }
  ]
}
